<svg xmlns="http://www.w3.org/2000/svg" width="32" height="32"><path fill="#fff" d="M14.667 2.667c-3.888 0-6.973 1.507-8.995 3.781s-3.005 5.253-3.005 8.219c0 2.963.984 5.944 3.005 8.219s5.107 3.781 8.995 3.781c3.099 0 5.501-1.128 7.448-2.667l4.941 4.944a1.335 1.335 0 0 0 1.888-1.888l-4.872-4.869c1.669-2.179 2.595-4.827 2.595-7.52 0-2.963-.984-5.944-3.005-8.219s-5.107-3.781-8.995-3.781zm0 2.666c3.221 0 5.472 1.16 7.005 2.885S24 12.298 24 14.666c0 2.371-.795 4.723-2.328 6.448-1.656 2.053-4.787 2.856-7.005 2.885-3.221 0-5.472-1.16-7.005-2.885s-2.328-4.08-2.328-6.448c0-2.371.795-4.723 2.328-6.448s3.784-2.885 7.005-2.885z"/></svg>